<svg xmlns="http://www.w3.org/2000/svg" viewBox="0 0 50.57 17.91"><defs><style>.cls-1{fill:none;stroke:#f0f1f3;stroke-miterlimit:10;}</style></defs><title>Asset 1</title><g id="Layer_2" data-name="Layer 2"><g id="Layer_4" data-name="Layer 4"><path class="cls-1" d="M21.62,4.74A6,6,0,0,1,26.06,6.6a6.12,6.12,0,0,1,1.85,4.46A6.09,6.09,0,0,1,26,15.55a6.43,6.43,0,0,1-9,0,6.12,6.12,0,0,1-1.88-4.49A6,6,0,0,1,17,6.56,6.4,6.4,0,0,1,21.62,4.74Z"/><path class="cls-1" d="M31.56,4.74A6,6,0,0,1,36,6.6a6.12,6.12,0,0,1,1.85,4.46A6.09,6.09,0,0,1,36,15.55a6.43,6.43,0,0,1-9,0A6.12,6.12,0,0,1,25,11.06a6,6,0,0,1,1.88-4.5A6.4,6.4,0,0,1,31.56,4.74Z"/><path class="cls-1" d="M14.92,17.28h0A2.29,2.29,0,0,1,12.63,15V10.72a2.51,2.51,0,0,0-.15-1.05.6.6,0,0,0-.58-.3c-.51,0-.77.46-.77,1.36V15a2.28,2.28,0,0,1-2.28,2.28h0A2.28,2.28,0,0,1,6.57,15V10.72A2.29,2.29,0,0,0,6.4,9.67a.6.6,0,0,0-.58-.3c-.5,0-.75.46-.75,1.36V15a2.29,2.29,0,0,1-2.29,2.28h0A2.28,2.28,0,0,1,.5,15V9.79A4.85,4.85,0,0,1,1.88,6.3,4.48,4.48,0,0,1,5.22,4.87,4.88,4.88,0,0,1,8.86,6.58a5.27,5.27,0,0,1,3.59-1.71,4.51,4.51,0,0,1,3.66,1.66A5.69,5.69,0,0,1,17.2,10.3V15A2.28,2.28,0,0,1,14.92,17.28Z"/><path class="cls-1" d="M45.5,14.88V7.25m4.57-.06v7.69"/><path class="cls-1" d="M45.5,7.28a2.29,2.29,0,1,1,4.57,0"/><path class="cls-1" d="M50.07,14.88a2.29,2.29,0,0,1-4.57,0"/><path class="cls-1" d="M47.79,2.78V5M45.51,16a7,7,0,0,1-1.33.81,6.52,6.52,0,0,1-7.26-1.23,6.08,6.08,0,0,1-1.86-4.5,6.11,6.11,0,0,1,1.85-4.45A6,6,0,0,1,39.24,5.1a6.64,6.64,0,0,1,2.07-.35,9.92,9.92,0,0,1,1.91.07v-2M47.79,5v5.65a6.86,6.86,0,0,1-1.47,4.56,5.57,5.57,0,0,1-.81.8"/><path class="cls-1" d="M43.22,2.78a2.29,2.29,0,0,1,4.57,0"/></g></g></svg>