<svg xmlns="http://www.w3.org/2000/svg" viewBox="0 0 50.57 17.78"><defs><style>.cls-1{fill:none;stroke:#f0f1f3;stroke-miterlimit:10;}</style></defs><title>logoWord_1</title><g id="Layer_2" data-name="Layer 2"><g id="Layer_4" data-name="Layer 4"><path class="cls-1" d="M21.62,4.61a6,6,0,0,1,4.44,1.86,6.12,6.12,0,0,1,1.85,4.46A6.07,6.07,0,0,1,26,15.42a6.43,6.43,0,0,1-9,0,6.1,6.1,0,0,1-1.88-4.49A6,6,0,0,1,17,6.43,6.44,6.44,0,0,1,21.62,4.61Z"/><path class="cls-1" d="M31.56,4.61A6,6,0,0,1,36,6.47a6.12,6.12,0,0,1,1.85,4.46A6.07,6.07,0,0,1,36,15.42a6.43,6.43,0,0,1-9,0A6.1,6.1,0,0,1,25,10.93a6,6,0,0,1,1.88-4.5A6.44,6.44,0,0,1,31.56,4.61Z"/><path class="cls-1" d="M14.92,17.16h0a2.29,2.29,0,0,1-2.29-2.28V10.59a2.57,2.57,0,0,0-.15-1.05.61.61,0,0,0-.58-.29c-.51,0-.77.45-.77,1.35v4.28a2.28,2.28,0,0,1-2.28,2.28h0a2.28,2.28,0,0,1-2.28-2.29V10.59A2.35,2.35,0,0,0,6.4,9.54a.61.61,0,0,0-.58-.29q-.75,0-.75,1.35v4.27a2.29,2.29,0,0,1-2.29,2.29h0A2.28,2.28,0,0,1,.5,14.88V9.66A4.83,4.83,0,0,1,1.88,6.18,4.45,4.45,0,0,1,5.22,4.74,4.88,4.88,0,0,1,8.86,6.45a5.27,5.27,0,0,1,3.59-1.71A4.54,4.54,0,0,1,16.11,6.4a5.72,5.72,0,0,1,1.09,3.78v4.7A2.28,2.28,0,0,1,14.92,17.16Z"/><path class="cls-1" d="M47.79,4.87A2.29,2.29,0,0,0,45.5,7.15v7.6a2.29,2.29,0,1,0,4.57,0V7.15A2.28,2.28,0,0,0,47.79,4.87Z"/><path class="cls-1" d="M47.79,2.66V4.87m-2.28,11a6.14,6.14,0,0,1-1.33.81,6.52,6.52,0,0,1-7.26-1.23A6.06,6.06,0,0,1,35.06,11,6.11,6.11,0,0,1,36.91,6.5,6.18,6.18,0,0,1,39.24,5a7.29,7.29,0,0,1,2.07-.35,10.81,10.81,0,0,1,1.91.07v-2m4.57,2.21v5.65a6.85,6.85,0,0,1-1.47,4.55,5.57,5.57,0,0,1-.81.8"/><path class="cls-1" d="M43.22,2.78a2.29,2.29,0,0,1,4.57,0"/></g></g></svg>